<svg xmlns="http://www.w3.org/2000/svg" xmlns:xlink="http://www.w3.org/1999/xlink" id="Layer_1" x="0" y="0" enable-background="new 86.063 85.506 439.937 612" version="1.1" viewBox="86.063 85.506 439.937 612" xml:space="preserve"><path d="M192.938,85.506h-87.75c-10.557,0-19.125,8.568-19.125,19.125v573.75c0,10.557,8.568,19.125,19.125,19.125h87.75	c10.557,0,19.125-8.568,19.125-19.125v-573.75C212.062,94.074,203.494,85.506,192.938,85.506z"/><path d="M349.875,85.506h-87.75c-10.557,0-19.125,8.568-19.125,19.125v573.75c0,10.557,8.568,19.125,19.125,19.125h87.75	c10.557,0,19.125-8.568,19.125-19.125v-573.75C369,94.074,360.432,85.506,349.875,85.506z"/><path d="M506.875,85.506h-87.75c-10.557,0-19.125,8.568-19.125,19.125v573.75c0,10.557,8.568,19.125,19.125,19.125h87.75	c10.557,0,19.125-8.568,19.125-19.125v-573.75C526,94.074,517.432,85.506,506.875,85.506z"/></svg>